<svg xmlns="http://www.w3.org/2000/svg" id="verify" enable-background="new 0 0 32 32" viewBox="0 0 32 32">
  <circle cx="16" cy="16" r="16" fill="#7C3AED"></circle>
  <path fill="#5b6ba1" d="M16,31.2c-8.7,0-15.8-7-16-15.6c0,0.1,0,0.2,0,0.4c0,8.8,7.2,16,16,16s16-7.2,16-16c0-0.1,0-0.2,0-0.4C31.8,24.3,24.7,31.2,16,31.2z"></path>
  <path fill="#fff" d="M25.1,10.4l-0.5-0.5c-0.2-0.2-0.4-0.3-0.6-0.3c0,0,0,0,0,0c-0.2,0-0.5,0.1-0.6,0.3l-8.7,8.7L10,14c-0.3-0.3-0.9-0.3-1.3,0l-0.5,0.5c-0.3,0.3-0.3,0.9,0,1.2l5.5,5.5c0.2,0.2,0.6,0.4,0.9,0.4c0.3,0,0.7-0.1,0.9-0.4l9.6-9.6c0.2-0.2,0.3-0.4,0.3-0.6C25.4,10.8,25.3,10.6,25.1,10.4z"></path>
</svg>
